<svg xmlns="http://www.w3.org/2000/svg" xmlns:xlink="http://www.w3.org/1999/xlink" width="1920" zoomAndPan="magnify" viewBox="0 0 1440 809.999993" height="1080" preserveAspectRatio="xMidYMid meet" version="1.2"><defs><clipPath id="7d95f69a91"><path d="M 377 0 L 1148.804688 0 L 1148.804688 810 L 377 810 Z M 377 0 "/></clipPath><clipPath id="1f07f633cd"><path d="M 691 132 L 1148.804688 132 L 1148.804688 417 L 691 417 Z M 691 132 "/></clipPath></defs><g id="c8c2cea94a"><path style="fill:none;stroke-width:2;stroke-linecap:round;stroke-linejoin:miter;stroke:#243762;stroke-opacity:1;stroke-miterlimit:4;" d="M 1.001813 0.998889 L 795.78579 0.998889 " transform="matrix(1.006622,0,0,1.006622,291.179053,801.443716)"/><path style=" stroke:none;fill-rule:nonzero;fill:currentColor;fill-opacity:1;" d="M 331.824219 409.691406 C 333.527344 404.886719 338.382812 403.226562 342.835938 401.855469 C 348.140625 400.226562 353.472656 400.488281 358.667969 402.367188 C 360.925781 403.179688 363.84375 404.242188 366.203125 405.667969 L 366.910156 405.074219 C 365.539062 402.65625 364.558594 399.683594 363.808594 397.382812 C 362.089844 392.128906 361.992188 386.789062 363.785156 381.539062 C 365.289062 377.128906 367.089844 372.328125 371.953125 370.773438 C 375.703125 369.578125 381.078125 370.832031 381.777344 375.464844 C 382.390625 379.578125 380.265625 382.917969 378.355469 386.335938 C 376.070312 390.421875 373.46875 394.34375 371.410156 398.554688 C 370.953125 399.492188 368.867188 403.382812 368.417969 405.773438 C 373.058594 411.3125 377.417969 417 381.535156 422.863281 C 381.40625 422.160156 381.285156 421.476562 381.175781 420.847656 C 380.246094 415.398438 380.925781 410.101562 383.460938 405.167969 C 385.589844 401.019531 388.070312 396.539062 393.105469 395.703125 C 396.992188 395.058594 402.125 397.089844 402.140625 401.777344 C 402.152344 405.929688 399.5625 408.925781 397.171875 412.03125 C 394.320312 415.742188 391.179688 419.246094 388.527344 423.109375 C 388.058594 423.792969 386.316406 426.160156 385.21875 428.257812 C 390.59375 436.371094 395.53125 444.839844 400.074219 453.765625 C 398.683594 450.972656 398.027344 447.199219 397.546875 444.398438 C 396.613281 438.949219 397.292969 433.652344 399.824219 428.71875 C 401.960938 424.574219 404.441406 420.089844 409.472656 419.253906 C 413.359375 418.613281 418.492188 420.644531 418.511719 425.328125 C 418.523438 429.480469 415.933594 432.476562 413.546875 435.582031 C 410.691406 439.292969 407.550781 442.796875 404.898438 446.660156 C 404.121094 447.796875 399.8125 453.582031 400.808594 455.046875 C 400.585938 454.71875 400.382812 454.363281 400.1875 453.992188 C 400.324219 454.261719 400.457031 454.53125 400.59375 454.796875 C 400.660156 454.882812 400.742188 454.960938 400.808594 455.046875 C 400.769531 454.996094 400.703125 454.957031 400.648438 454.914062 C 403.609375 460.800781 406.398438 466.882812 409.035156 473.195312 C 409.042969 472.609375 409.058594 472.035156 409.074219 471.5 C 409.226562 465.976562 410.933594 460.914062 414.386719 456.574219 C 417.292969 452.929688 420.605469 449.015625 425.703125 449.183594 C 429.640625 449.320312 434.277344 452.316406 433.371094 456.914062 C 432.570312 460.988281 429.441406 463.417969 426.492188 465.992188 C 422.964844 469.070312 419.195312 471.890625 415.835938 475.160156 C 415.246094 475.734375 413.089844 477.699219 411.601562 479.53125 C 413.773438 485.070312 415.851562 490.757812 417.820312 496.660156 C 418.789062 499.5625 419.773438 502.523438 420.75 505.53125 C 420.375 502.933594 420.441406 500.058594 420.503906 497.808594 C 420.65625 492.28125 422.363281 487.21875 425.816406 482.875 C 428.082031 480.035156 430.609375 477.058594 434.019531 475.953125 C 434.3125 472.917969 437.128906 470.347656 439.996094 469.484375 C 444.882812 468.011719 449.085938 470.941406 452.832031 473.722656 C 456.5625 476.496094 459.222656 480.082031 460.910156 484.292969 C 461.886719 477.867188 463.210938 471.703125 464.902344 465.835938 C 463.414062 464.917969 461.953125 464.152344 461.445312 463.863281 C 457.359375 461.566406 452.992188 459.808594 448.796875 457.734375 C 445.285156 456.003906 441.636719 454.457031 439.816406 450.722656 C 437.761719 446.511719 441.476562 442.425781 445.242188 441.292969 C 450.128906 439.820312 454.335938 442.75 458.078125 445.527344 C 462.53125 448.832031 465.476562 453.289062 467.042969 458.59375 C 467.070312 458.679688 467.097656 458.777344 467.125 458.867188 C 468.066406 456.1875 469.0625 453.550781 470.160156 451.003906 C 471.945312 446.886719 473.964844 442.992188 476.109375 439.265625 C 474.8125 437.410156 473.058594 435.484375 472.558594 434.894531 C 469.523438 431.320312 466.039062 428.164062 462.8125 424.765625 C 460.121094 421.921875 457.234375 419.210938 456.820312 415.074219 C 456.351562 410.414062 461.25 407.867188 465.179688 408.109375 C 470.273438 408.417969 473.203125 412.621094 475.753906 416.527344 C 478.785156 421.171875 480.007812 426.367188 479.636719 431.882812 C 479.601562 432.449219 479.554688 433.0625 479.507812 433.691406 C 483.710938 427.144531 488.210938 421.25 492.511719 415.960938 C 491.59375 413.6875 489.757812 410.832031 489.296875 410.054688 C 486.894531 406.03125 483.980469 402.332031 481.371094 398.449219 C 479.183594 395.199219 476.789062 392.046875 477.066406 387.898438 C 477.375 383.226562 482.632812 381.527344 486.46875 382.417969 C 491.4375 383.570312 493.628906 388.199219 495.492188 392.472656 C 497.710938 397.558594 498.050781 402.886719 496.773438 408.265625 C 496.289062 410.304688 495.679688 412.859375 494.765625 415.144531 L 495.945312 416.113281 C 498.007812 414.773438 500.402344 413.675781 502.304688 412.804688 C 505.402344 411.390625 508.597656 410.589844 511.859375 410.453125 C 512.402344 410.429688 512.949219 410.433594 513.496094 410.453125 L 518.585938 330.324219 L 518.839844 330.339844 L 513.75 410.464844 C 514.292969 410.488281 514.835938 410.527344 515.378906 410.582031 C 516.265625 410.675781 517.152344 410.804688 518.046875 411 C 522.597656 411.996094 527.570312 413.253906 529.664062 417.902344 C 531.277344 421.492188 530.632812 426.976562 526.105469 428.191406 C 522.09375 429.269531 518.535156 427.53125 514.921875 426.015625 C 514.753906 425.945312 514.582031 425.867188 514.414062 425.792969 C 513.878906 425.566406 513.351562 425.328125 512.820312 425.09375 L 512.238281 434.285156 C 512.757812 434.75 513.242188 435.289062 513.667969 435.925781 C 513.699219 435.972656 513.726562 436.027344 513.757812 436.074219 C 515.617188 438.988281 515.984375 443.53125 513.136719 445.867188 C 512.765625 446.171875 512.351562 446.441406 511.871094 446.664062 C 511.726562 446.726562 511.582031 446.765625 511.441406 446.824219 L 509.875 471.414062 L 511.5 471.597656 C 511.5 471.570312 511.503906 471.542969 511.507812 471.519531 C 511.648438 470.660156 511.882812 469.800781 512.28125 468.941406 C 514.257812 464.695312 519.773438 465.003906 523.027344 467.214844 C 527.25 470.082031 527.625 475.195312 527.824219 479.847656 C 528.0625 485.394531 526.460938 490.484375 523.328125 495.042969 C 523.148438 495.300781 522.953125 495.582031 522.761719 495.859375 C 525.59375 494.625 528.507812 493.492188 531.53125 492.480469 C 535.28125 491.230469 539.109375 490.03125 542.984375 488.929688 C 543.75 486.582031 544.113281 482.9375 544.242188 482.007812 C 544.875 477.359375 544.898438 472.65625 545.277344 467.992188 C 545.59375 464.082031 545.6875 460.128906 548.484375 457.058594 C 551.644531 453.597656 556.8125 455.546875 559.257812 458.628906 C 562.425781 462.625 561.253906 467.617188 560.046875 472.121094 C 558.613281 477.480469 555.558594 481.859375 551.207031 485.269531 C 550.316406 485.96875 549.300781 486.761719 548.21875 487.535156 C 555.875 485.613281 563.664062 484.273438 571.382812 484.035156 C 573.121094 482.332031 575.199219 478.453125 575.722656 477.550781 C 578.082031 473.503906 579.90625 469.164062 582.039062 464.996094 C 583.824219 461.511719 585.425781 457.886719 589.1875 456.121094 C 593.429688 454.128906 597.457031 457.910156 598.539062 461.695312 C 599.933594 466.597656 596.945312 470.761719 594.109375 474.460938 C 590.734375 478.863281 586.238281 481.742188 580.910156 483.226562 C 578.757812 483.828125 576.011719 484.582031 573.421875 484.847656 L 573.414062 486.1875 C 575.664062 487.355469 577.875 488.976562 579.617188 490.265625 C 584.0625 493.550781 587.238281 497.84375 588.824219 503.164062 C 590.152344 507.628906 591.460938 512.585938 588.410156 516.671875 C 586.046875 519.824219 580.9375 521.914062 577.6875 518.542969 C 574.800781 515.554688 574.597656 511.597656 574.171875 507.703125 C 573.664062 503.050781 573.507812 498.347656 572.746094 493.722656 C 572.605469 492.878906 572.207031 489.804688 571.515625 487.503906 C 563.664062 487.671875 555.707031 489.136719 547.878906 491.195312 C 549.597656 491.496094 551.285156 491.910156 552.707031 492.261719 C 558.074219 493.597656 562.648438 496.351562 566.148438 500.65625 C 569.085938 504.277344 572.195312 508.355469 570.933594 513.292969 C 569.957031 517.109375 566.035156 521 561.742188 519.125 C 557.929688 517.46875 556.230469 513.890625 554.347656 510.457031 C 552.097656 506.347656 550.160156 502.0625 547.679688 498.082031 C 547.191406 497.296875 545.402344 494.175781 543.757812 492.335938 C 540.007812 493.417969 536.292969 494.601562 532.65625 495.820312 C 527.121094 497.664062 521.980469 499.871094 517.167969 502.441406 C 516.761719 502.773438 516.34375 503.082031 515.925781 503.335938 C 518.933594 501.746094 523.558594 501.464844 526.855469 501.265625 C 532.371094 500.9375 537.5625 502.191406 542.1875 505.25 C 546.078125 507.828125 550.257812 510.785156 550.539062 515.878906 C 550.75 519.8125 548.171875 524.695312 543.511719 524.199219 C 539.382812 523.753906 536.6875 520.847656 533.863281 518.136719 C 530.492188 514.894531 527.351562 511.382812 523.796875 508.328125 C 522.757812 507.429688 517.492188 502.527344 515.917969 503.339844 C 515.917969 503.339844 515.914062 503.339844 515.910156 503.339844 C 515.914062 503.339844 515.917969 503.339844 515.917969 503.335938 C 516.054688 503.253906 516.15625 503.113281 516.246094 502.941406 C 513.832031 504.269531 511.496094 505.6875 509.25 507.210938 C 508.667969 507.609375 508.105469 508.035156 507.535156 508.441406 L 507.105469 515.191406 C 507.648438 515.269531 508.1875 515.367188 508.722656 515.480469 C 511.625 516.101562 514.394531 517.226562 516.980469 518.941406 C 520.867188 521.515625 525.054688 524.476562 525.332031 529.570312 C 525.539062 533.5 522.960938 538.386719 518.304688 537.886719 C 514.171875 537.445312 511.476562 534.539062 508.65625 531.824219 C 508.347656 531.53125 508.046875 531.222656 507.742188 530.921875 C 507.226562 530.414062 506.714844 529.894531 506.203125 529.378906 L 504.597656 554.648438 L 524.015625 554.648438 C 523.933594 560.785156 523.625 582.855469 523.257812 602.292969 C 523.15625 607.949219 522.066406 613.699219 520.011719 619.375 L 519.21875 621.5625 L 691.941406 621.5625 L 695.011719 617.765625 C 698.285156 613.695312 700.601562 610.746094 700.601562 610.746094 L 701.453125 609.65625 L 700.980469 609.136719 C 699.917969 609.527344 699.320312 609.738281 699.320312 609.738281 L 699.316406 609.734375 C 699.242188 609.65625 613.632812 515.476562 613.800781 478.835938 C 613.867188 464.269531 623.269531 445.609375 633.757812 435.75 C 639.800781 430.070312 651.859375 419.703125 664.402344 408.625 L 666.871094 408.625 L 668.722656 406.988281 L 517.292969 406.988281 L 517.292969 406.734375 L 669 406.734375 L 669.464844 406.324219 C 669.9375 405.90625 670.371094 405.511719 670.832031 405.101562 L 668.378906 405.101562 C 685.671875 389.734375 702.777344 373.816406 705.335938 367.660156 C 708.359375 360.390625 709.472656 347.519531 708.890625 339.492188 L 709.164062 339.484375 L 710.523438 339.457031 C 710.523438 339.429688 710.523438 339.398438 710.519531 339.371094 C 710.5 338.84375 710.332031 334.445312 710.128906 328.316406 L 710.078125 326.734375 L 489.121094 327.074219 L 489.121094 320.191406 L 547.550781 320.097656 L 545.691406 318.46875 L 543.21875 318.46875 C 542.742188 318.050781 542.285156 317.574219 541.863281 317.054688 C 541.453125 316.550781 541.078125 316 540.726562 315.421875 L 492.640625 315.421875 L 492.640625 164.667969 C 492.640625 142.1875 518.277344 121.027344 529.925781 120.976562 C 531.5 120.96875 533.125 120.914062 534.753906 120.8125 L 535.429688 120.769531 L 535.875 120.261719 C 536.335938 119.738281 536.960938 119.449219 537.636719 119.449219 L 544.648438 119.433594 L 545.273438 118.746094 L 545.511719 118.507812 C 546.957031 117.0625 549.019531 116.265625 551.324219 116.265625 C 553.773438 116.265625 556.082031 117.171875 557.667969 118.753906 L 561.269531 122.355469 L 562.222656 122.042969 C 564.847656 121.175781 567.636719 120.738281 570.511719 120.738281 C 577.585938 120.738281 584.289062 123.382812 588.902344 127.996094 L 599.722656 138.816406 L 565.636719 172.902344 L 554.8125 162.082031 C 547.375 154.640625 544.808594 143.230469 548.566406 134.335938 L 548.996094 133.320312 L 546.046875 130.375 C 544.742188 129.066406 543.824219 127.339844 543.460938 125.5 L 543.203125 124.179688 L 537.65625 124.191406 C 536.558594 124.191406 535.613281 123.445312 535.351562 122.375 L 535.035156 121.058594 L 533.683594 121.125 C 532.523438 121.183594 531.265625 121.222656 529.925781 121.230469 C 518.046875 121.28125 492.894531 141.867188 492.894531 164.667969 L 492.894531 311.65625 L 539.078125 311.65625 C 538.917969 311.121094 538.769531 310.578125 538.65625 310.023438 C 538.65625 310.019531 538.65625 310.015625 538.65625 310.011719 L 519.523438 213.289062 C 517.886719 204.917969 522.644531 197.324219 529.160156 197.324219 L 681.375 197.324219 C 685.90625 197.324219 689.863281 200.457031 691.007812 206.273438 L 691.582031 209.195312 L 692.125 211.960938 L 693.070312 209.867188 C 694.148438 207.488281 695.1875 205.335938 696.257812 203.296875 C 704.246094 188.164062 713.820312 171.03125 726.421875 159.285156 L 726.980469 158.765625 L 722.417969 74.960938 L 721.078125 74.78125 C 719.023438 74.507812 718.296875 74.222656 718.082031 74.113281 C 716.972656 73.558594 714.679688 68.660156 714.398438 59.863281 C 714.144531 51.863281 715.484375 24.496094 743.355469 8.199219 C 749.285156 4.734375 766.425781 2.316406 778.097656 2.316406 C 779.921875 2.316406 781.472656 2.382812 782.714844 2.507812 C 822.730469 6.578125 845.71875 28.027344 845.78125 61.351562 C 845.78125 61.863281 845.765625 62.355469 845.746094 62.851562 L 845.726562 63.574219 L 845.839844 65.234375 L 846.292969 65.238281 C 847.960938 72.488281 848.199219 102.078125 846.960938 149.292969 L 846.933594 150.347656 L 847.886719 150.808594 C 850.132812 151.890625 851.972656 152.847656 853.351562 153.644531 C 866.949219 161.488281 883.425781 172.675781 890.199219 189.691406 C 900.601562 215.839844 902.566406 230.085938 905.285156 249.808594 C 906.015625 255.132812 906.777344 260.636719 907.765625 266.945312 C 908.253906 270.445312 908.945312 274.1875 909.679688 278.152344 C 912.769531 294.871094 916.273438 313.820312 907.1875 326.839844 C 901.984375 334.292969 893.257812 338.976562 880.503906 341.152344 L 878.542969 341.488281 L 879.128906 343.023438 C 879.679688 342.933594 880.230469 342.859375 880.777344 342.765625 C 880.777344 342.765625 880.78125 342.765625 880.78125 342.765625 C 886.828125 358.613281 891.988281 374.417969 893.832031 391.019531 C 893.894531 391.5625 893.925781 392.109375 893.976562 392.65625 L 899.027344 392.65625 C 904.132812 392.65625 909.160156 393.585938 913.574219 395.34375 L 916.152344 396.375 L 915.769531 393.394531 C 915.746094 393.226562 915.71875 393.0625 915.71875 392.890625 C 915.71875 392.214844 915.855469 391.519531 916.140625 390.765625 L 916.359375 390.1875 L 916.140625 389.613281 C 915.855469 388.859375 915.71875 388.164062 915.71875 387.488281 C 915.71875 378.5625 937.007812 369.570312 969.972656 364.554688 L 969.972656 281.96875 C 969.972656 277.300781 985.0625 259.402344 985.0625 255.511719 C 985.0625 253.722656 985.078125 253.21875 985.09375 251.664062 C 985.515625 252.027344 986.074219 252.363281 986.714844 252.667969 L 986.734375 250.917969 L 986.15625 250.421875 C 985.785156 250.105469 985.703125 249.894531 985.691406 249.894531 L 986.390625 240.769531 C 986.457031 240.589844 986.558594 240.339844 986.648438 240.191406 C 987.28125 239.113281 990.742188 237.515625 996.164062 237.515625 C 1001.183594 237.515625 1004.65625 239.269531 1005.523438 240.515625 L 1005.757812 240.855469 L 1005.757812 241.972656 C 1005.757812 241.972656 1006.230469 249.90625 1006.238281 250.019531 C 1006.238281 250.019531 1006.226562 250.078125 1006.144531 250.199219 L 1005.839844 250.636719 C 1005.839844 250.636719 1005.878906 251.761719 1005.90625 252.449219 C 1006.617188 252.050781 1007.160156 251.601562 1007.492188 251.121094 C 1007.550781 253.125 1007.613281 253.53125 1007.613281 255.511719 C 1007.613281 259.402344 1022.800781 277.300781 1022.800781 281.96875 L 1022.800781 360.371094 L 1022.832031 360.371094 C 1025.574219 360.324219 1028.328125 360.292969 1031.117188 360.292969 C 1034.242188 360.292969 1037.320312 360.332031 1040.378906 360.390625 L 1042.046875 360.425781 L 1042.046875 300.824219 C 1042.046875 292.835938 1048.328125 286.253906 1056.34375 285.839844 L 1057.890625 285.757812 L 1057.890625 276.664062 L 1055.152344 276.824219 C 1054.398438 276.875 1053.691406 276.925781 1053.050781 276.925781 C 1051.15625 276.925781 1050.847656 276.644531 1050.847656 274.90625 L 1050.847656 268.695312 C 1050.847656 264.386719 1054.398438 258.832031 1058.167969 258.832031 L 1075.019531 258.832031 C 1078.953125 258.832031 1082.800781 264.480469 1082.800781 268.695312 L 1082.800781 275.515625 C 1082.800781 276.449219 1082.800781 277.125 1079.550781 277.125 C 1079.046875 277.125 1078.527344 277.109375 1077.992188 277.09375 L 1075.757812 277.042969 L 1075.757812 286.007812 L 1077.125 286.234375 C 1087.003906 287.863281 1091.605469 292.496094 1091.605469 300.824219 L 1091.605469 364.460938 L 1092.988281 364.675781 C 1125.511719 369.703125 1146.523438 378.660156 1146.523438 387.492188 C 1146.523438 388.171875 1146.386719 388.863281 1146.101562 389.617188 L 1145.882812 390.195312 L 1146.101562 390.769531 C 1146.386719 391.523438 1146.523438 392.21875 1146.523438 392.894531 C 1146.523438 405.769531 1101.050781 419.765625 1033.359375 420.082031 L 1031.734375 420.085938 L 1031.734375 785.34375 L 1033.328125 785.382812 C 1060.878906 786.054688 1076.117188 791.992188 1076.117188 795.835938 C 1076.117188 800.226562 1057.976562 806.347656 1028.429688 806.351562 C 998.890625 806.351562 980.75 800.226562 980.75 795.835938 C 980.75 791.648438 998.09375 785.628906 1026.339844 785.332031 L 1027.957031 785.316406 L 1027.957031 420.078125 L 1026.339844 420.0625 C 986.21875 419.664062 949.148438 414.0625 929.589844 405.449219 L 925.820312 403.789062 L 927.425781 407.582031 C 928.296875 409.640625 928.710938 411.757812 928.648438 413.871094 C 928.398438 422.941406 919.53125 431.265625 907.09375 434.121094 L 905.730469 434.433594 L 932.472656 807.96875 L 932.34375 808.105469 C 932.285156 808.105469 932.222656 808.0625 932.21875 807.988281 L 905.480469 434.496094 L 903.746094 434.742188 C 901.746094 435.03125 899.730469 435.175781 897.753906 435.175781 L 889.191406 435.175781 C 889.003906 435.71875 888.824219 436.265625 888.628906 436.808594 C 884.9375 447.191406 880.019531 457.277344 875.589844 466.347656 C 866.414062 485.140625 857.394531 508.167969 851.199219 528.816406 C 848.230469 538.722656 847.269531 549.027344 845.976562 559.160156 C 838.609375 616.898438 826.253906 675.660156 826.28125 733.9375 L 812.027344 734.230469 L 810.390625 734.265625 C 810.09375 740.410156 810.398438 745.445312 811.300781 749.230469 C 813.171875 757.089844 806.976562 767.117188 798.40625 780.996094 C 796.75 783.683594 794.996094 786.523438 793.183594 789.535156 C 786.316406 800.941406 775.40625 805.003906 767.484375 805.003906 C 763.269531 805.003906 759.46875 803.894531 756.789062 801.882812 L 753.953125 799.757812 L 754.371094 806.339844 L 754.117188 806.359375 L 742.394531 621.832031 L 739.847656 621.832031 L 739.542969 621.960938 C 737.457031 622.851562 730.332031 625.886719 722.039062 629.328125 C 716.730469 631.574219 711.945312 633.601562 707.75 635.328125 L 706.816406 635.714844 L 694.484375 807.992188 C 694.480469 808.046875 694.441406 808.085938 694.402344 808.097656 L 694.265625 807.972656 L 694.230469 807.96875 L 706.554688 635.832031 L 704.128906 636.808594 C 699.324219 638.746094 692.617188 641.339844 689.863281 641.558594 L 689.757812 641.566406 C 689.757812 641.566406 689.429688 641.582031 689.265625 641.582031 C 687.808594 641.582031 686.332031 641.210938 685.113281 640.527344 C 684.125 639.976562 682.855469 638.972656 682.441406 637.316406 C 681.714844 634.441406 683.84375 631.371094 686.257812 628.484375 C 687.359375 627.167969 688.46875 625.828125 689.554688 624.5 L 691.75 621.832031 L 519.066406 621.832031 L 518.644531 622.816406 C 512.527344 636.984375 502.105469 646.820312 499.058594 649.5 L 498.546875 649.945312 L 498.335938 653.273438 L 534.957031 653.273438 C 540.171875 653.273438 544.746094 658.273438 544.746094 663.96875 C 544.746094 669.660156 540.171875 674.65625 534.957031 674.65625 L 515.351562 674.65625 L 515.675781 676.292969 L 517.34375 676.292969 C 520.855469 693.984375 524.371094 711.675781 527.878906 729.371094 C 529.980469 739.914062 532.070312 750.453125 534.167969 761 C 536.199219 771.238281 538.617188 781.472656 540.210938 791.785156 C 540.8125 795.695312 540.890625 799.867188 538.699219 803.335938 C 536.875 806.230469 533.71875 808.238281 530.210938 807.953125 C 523.078125 807.375 520.558594 798.9375 519.128906 793.253906 C 514.046875 772.949219 508.605469 752.714844 502.8125 732.589844 C 500.699219 725.253906 498.523438 717.9375 496.332031 710.625 C 496.304688 710.527344 496.273438 710.4375 496.246094 710.34375 L 494.699219 710.519531 L 488.613281 806.351562 L 488.359375 806.335938 L 494.769531 705.433594 C 494.320312 703.9375 493.871094 702.441406 493.417969 700.945312 C 490.921875 692.722656 488.398438 684.503906 485.859375 676.289062 L 487.570312 676.289062 C 487.519531 676.125 487.46875 675.96875 487.421875 675.804688 L 487.066406 674.65625 L 436.921875 674.65625 L 436.566406 675.804688 C 436.515625 675.964844 436.464844 676.128906 436.414062 676.289062 L 438.125 676.289062 C 432.347656 695.015625 426.605469 713.753906 421.179688 732.589844 C 415.382812 752.710938 409.945312 772.949219 404.859375 793.253906 C 403.421875 798.9375 400.914062 807.371094 393.777344 807.953125 C 390.257812 808.234375 387.117188 806.222656 385.28125 803.332031 C 383.097656 799.867188 383.167969 795.691406 383.773438 791.78125 C 385.371094 781.46875 387.789062 771.234375 389.820312 760.996094 C 391.921875 750.453125 394.007812 739.910156 396.109375 729.371094 C 399.617188 711.671875 403.132812 693.980469 406.648438 676.289062 L 408.3125 676.289062 L 408.636719 674.65625 L 389.03125 674.65625 C 383.820312 674.65625 379.25 669.660156 379.25 663.96875 C 379.25 658.269531 383.820312 653.269531 389.03125 653.269531 L 430.621094 653.269531 L 426.976562 650.363281 C 426.726562 650.164062 402.253906 630.300781 401.753906 602.300781 C 401.386719 582.867188 401.082031 560.792969 400.996094 554.660156 L 429.515625 554.660156 L 429.402344 553.027344 L 427.765625 553.027344 C 426.675781 537.351562 422.40625 522.132812 417.832031 507.945312 C 415.589844 507.925781 413.0625 508.21875 412.304688 508.277344 C 407.632812 508.65625 403.03125 509.644531 398.390625 510.277344 C 394.511719 510.804688 390.625 511.566406 387.023438 509.488281 C 382.964844 507.148438 383.757812 501.6875 386.246094 498.632812 C 389.472656 494.675781 394.597656 494.753906 399.253906 494.960938 C 404.796875 495.214844 409.730469 497.253906 413.992188 500.773438 C 414.628906 501.296875 415.332031 501.878906 416.050781 502.503906 C 415.527344 500.914062 415.003906 499.339844 414.484375 497.78125 C 412.652344 492.296875 410.726562 486.996094 408.71875 481.832031 C 406.34375 481.363281 401.921875 481.886719 400.871094 481.96875 C 396.199219 482.351562 391.597656 483.335938 386.957031 483.972656 C 383.078125 484.5 379.191406 485.257812 375.589844 483.1875 C 371.535156 480.84375 372.324219 475.378906 374.8125 472.328125 C 378.039062 468.375 383.164062 468.445312 387.820312 468.65625 C 393.363281 468.90625 398.296875 470.949219 402.558594 474.46875 C 404.109375 475.746094 406.03125 477.34375 407.640625 479.082031 C 404.269531 470.632812 400.632812 462.597656 396.703125 454.910156 C 394.558594 455.339844 392.265625 456.074219 391.558594 456.277344 C 387.046875 457.570312 382.734375 459.4375 378.308594 460.96875 C 374.609375 462.246094 370.945312 463.753906 367.007812 462.429688 C 362.570312 460.929688 362.273438 455.417969 364.113281 451.933594 C 366.503906 447.421875 371.542969 446.488281 376.148438 445.777344 C 381.632812 444.9375 386.871094 445.972656 391.742188 448.585938 C 392.453125 448.96875 393.234375 449.386719 394.039062 449.84375 C 390.539062 443.347656 386.816406 437.09375 382.84375 431.046875 C 380.414062 431.0625 376.199219 432.4375 375.191406 432.722656 C 370.683594 434.015625 366.371094 435.882812 361.945312 437.414062 C 358.242188 438.695312 354.582031 440.203125 350.644531 438.875 C 346.207031 437.378906 345.910156 431.863281 347.75 428.382812 C 350.132812 423.871094 355.175781 422.9375 359.785156 422.226562 C 365.265625 421.386719 370.503906 422.421875 375.378906 425.035156 C 377.097656 425.957031 379.222656 427.105469 381.105469 428.445312 C 376.238281 421.242188 371.007812 414.316406 365.371094 407.609375 C 363.089844 408.316406 360.375 409.660156 359.609375 410.003906 C 355.335938 411.9375 351.335938 414.414062 347.183594 416.570312 C 343.707031 418.378906 340.304688 420.402344 336.214844 419.660156 C 331.609375 418.816406 330.511719 413.402344 331.824219 409.691406 Z M 737.851562 550.304688 L 731.898438 456.617188 L 730.347656 458 L 730.480469 460.070312 C 727.035156 463.148438 723.636719 466.171875 720.386719 469.066406 C 719.789062 469.59375 719.222656 470.101562 718.636719 470.621094 L 715.203125 518.566406 C 715.699219 519.289062 716.183594 519.992188 716.6875 520.726562 C 723.136719 530.164062 730.136719 540.671875 736.21875 550.410156 L 736.246094 550.820312 Z M 716.613281 472.421875 C 704.757812 482.964844 695.765625 490.9375 695.765625 490.9375 C 695.765625 490.9375 703.628906 501.769531 713.488281 516.070312 C 713.976562 516.773438 714.476562 517.511719 714.972656 518.230469 L 718.363281 470.863281 C 717.78125 471.382812 717.183594 471.914062 716.613281 472.421875 Z M 740.382812 560.394531 L 740.15625 556.820312 C 747.59375 569.171875 752.832031 579.429688 752.414062 583.257812 C 752.296875 584.308594 751.253906 585.546875 749.5625 586.90625 C 749.152344 587.238281 748.691406 587.578125 748.207031 587.921875 L 748.894531 589.6875 L 757 609.730469 C 756.433594 613.007812 753.609375 616.175781 749.835938 617.707031 C 747.734375 618.566406 745.675781 619.410156 743.65625 620.246094 L 742.574219 620.695312 L 753.824219 797.757812 L 756.53125 792.207031 C 757.886719 789.425781 759.640625 786.148438 761.667969 782.359375 C 765.503906 775.191406 770.273438 766.273438 773.910156 757.574219 C 776.722656 750.859375 779.109375 743.355469 781.003906 735.269531 L 781.097656 734.863281 L 779.414062 734.898438 L 768.761719 735.113281 C 768.554688 673.21875 756.605469 611.085938 759.367188 549.636719 C 760.160156 531.847656 761.820312 515.722656 765.242188 498.039062 C 768.785156 479.738281 773.472656 462.230469 778.175781 444.246094 C 778.824219 441.769531 779.351562 439.292969 779.8125 436.808594 C 779.914062 436.265625 779.996094 435.71875 780.089844 435.175781 L 758.28125 435.175781 C 757.6875 435.714844 757.089844 436.253906 756.46875 436.808594 C 749.769531 442.839844 741.777344 449.992188 733.820312 457.09375 L 733.6875 455.023438 C 733.371094 455.308594 733.050781 455.589844 732.734375 455.875 L 732.140625 456.40625 L 738.550781 557.324219 L 738.757812 557.664062 C 739.328125 558.613281 739.859375 559.511719 740.382812 560.394531 Z M 512.582031 424.992188 C 512.050781 424.757812 511.519531 424.53125 510.992188 424.292969 C 508.027344 422.953125 505.070312 421.589844 502.007812 420.5 C 501.097656 420.175781 497.523438 418.757812 495.074219 418.40625 C 489.894531 424.785156 484.429688 432.050781 479.625 440.253906 C 481.527344 438.394531 483.949219 436.738281 485.847656 435.449219 C 490.425781 432.347656 495.53125 430.78125 501.070312 431.050781 C 504.28125 431.210938 507.6875 431.484375 510.433594 433.007812 C 510.988281 433.3125 511.511719 433.671875 512.003906 434.085938 Z M 511.191406 446.925781 C 510.636719 447.121094 510.082031 447.28125 509.523438 447.378906 C 506.523438 447.914062 503.511719 447.085938 500.488281 446.378906 C 495.929688 445.316406 491.441406 443.898438 486.828125 443.082031 C 485.699219 442.882812 480.617188 441.785156 478.421875 442.300781 C 476.617188 445.527344 474.921875 448.894531 473.402344 452.40625 C 471.613281 456.535156 470.050781 460.859375 468.699219 465.355469 C 468.917969 466.835938 469.003906 468.289062 468.820312 469.582031 C 469.480469 466.246094 472.179688 462.46875 474.101562 459.785156 C 477.320312 455.289062 481.566406 452.054688 486.859375 450.386719 C 491.308594 448.992188 496.242188 447.605469 500.371094 450.601562 C 503.558594 452.914062 505.726562 457.992188 502.402344 461.296875 C 499.457031 464.222656 495.503906 464.488281 491.617188 464.96875 C 486.972656 465.546875 482.273438 465.777344 477.65625 466.605469 C 476.304688 466.851562 469.171875 467.851562 468.820312 469.585938 C 468.820312 469.585938 468.816406 469.589844 468.816406 469.589844 C 468.816406 469.589844 468.816406 469.585938 468.820312 469.585938 C 468.878906 469.152344 468.53125 468.621094 467.953125 468.0625 C 465.78125 475.886719 464.242188 484.226562 463.359375 493.050781 C 463.640625 494.703125 463.773438 496.34375 463.570312 497.785156 C 463.617188 497.441406 463.402344 497.035156 463.03125 496.605469 C 462.644531 501.4375 462.425781 506.394531 462.417969 511.496094 C 462.414062 514.152344 462.453125 516.828125 462.515625 519.519531 C 463.152344 518.160156 463.839844 516.867188 464.433594 515.746094 C 467.03125 510.867188 470.816406 507.097656 475.839844 504.753906 C 480.066406 502.78125 484.773438 500.757812 489.265625 503.179688 C 489.382812 503.246094 489.492188 503.335938 489.613281 503.40625 C 488.878906 500.269531 488.011719 497.164062 487.296875 494.023438 C 487.226562 493.710938 487.152344 493.394531 487.078125 493.078125 C 486.839844 493.109375 486.605469 493.136719 486.367188 493.164062 C 481.722656 493.742188 477.023438 493.96875 472.410156 494.800781 C 471.058594 495.042969 463.914062 496.046875 463.574219 497.78125 C 464.226562 494.445312 466.929688 490.664062 468.851562 487.980469 C 472.074219 483.488281 476.316406 480.25 481.609375 478.585938 C 486.058594 477.191406 490.992188 475.804688 495.121094 478.796875 C 495.671875 479.195312 496.175781 479.703125 496.640625 480.242188 C 497.058594 480.441406 497.464844 480.660156 497.832031 480.90625 C 502.050781 483.777344 502.425781 488.886719 502.625 493.542969 C 502.859375 499.089844 501.257812 504.179688 498.125 508.734375 C 496.257812 511.457031 493.621094 515.285156 490.703125 517.039062 C 491.152344 516.769531 491.320312 515.9375 491.355469 514.902344 C 488.894531 517.042969 485.660156 517.746094 482.476562 518.578125 C 477.949219 519.761719 473.320312 520.609375 468.855469 522.042969 C 468.015625 522.3125 464.847656 523.207031 462.660156 524.28125 C 462.988281 533.070312 463.675781 542.121094 464.710938 551.527344 C 465.171875 548.859375 466.210938 546.035156 467.027344 543.839844 C 468.960938 538.660156 472.214844 534.425781 476.886719 531.433594 C 478.90625 530.140625 481.054688 528.824219 483.3125 528.089844 C 486.097656 524.195312 489.050781 520.566406 492.203125 517.234375 C 491.582031 516.960938 491.046875 516.855469 490.703125 517.039062 C 491.5 516.613281 492.417969 516.289062 493.390625 516.027344 C 497.257812 512.082031 501.398438 508.539062 505.835938 505.386719 C 506.394531 504.988281 506.976562 504.617188 507.546875 504.230469 Z M 509.75 473.597656 L 507.816406 504.054688 C 508.386719 503.667969 508.945312 503.269531 509.527344 502.894531 C 511.769531 501.464844 514.082031 500.117188 516.46875 498.871094 C 516.257812 496.816406 515.828125 494.703125 515.710938 494.023438 C 514.925781 489.398438 513.539062 484.90625 512.5 480.339844 C 512 478.121094 511.433594 475.90625 511.378906 473.699219 C 511.378906 473.675781 511.378906 473.652344 511.378906 473.628906 Z M 507.269531 508.644531 C 506.695312 509.054688 506.113281 509.449219 505.554688 509.875 C 503.394531 511.515625 501.316406 513.269531 499.304688 515.121094 C 500.128906 515.058594 500.921875 515.007812 501.648438 514.964844 C 502.859375 514.894531 504.050781 514.910156 505.226562 514.992188 C 505.773438 515.03125 506.316406 515.09375 506.855469 515.167969 Z M 514.699219 674.65625 L 496.976562 674.65625 L 495.730469 694.277344 C 496.183594 695.710938 496.644531 697.144531 497.09375 698.582031 C 504.894531 723.476562 511.890625 748.628906 518.421875 773.867188 C 519.632812 778.535156 520.820312 783.195312 521.992188 787.871094 C 522.949219 791.695312 523.597656 795.808594 525.40625 799.355469 C 526.964844 802.402344 530.054688 805.671875 533.59375 803.078125 C 537.601562 800.160156 536.636719 794.464844 535.828125 790.328125 C 532.074219 771.089844 528.242188 751.878906 524.457031 732.644531 C 520.753906 713.855469 517.054688 695.070312 513.355469 676.289062 L 515.019531 676.289062 Z M 489.867188 676.289062 C 491.328125 680.617188 492.753906 684.953125 494.15625 689.300781 C 494.1875 689.398438 494.21875 689.496094 494.25 689.597656 L 495.785156 689.40625 L 496.722656 674.65625 L 487.59375 674.65625 L 488.144531 676.292969 L 489.867188 676.292969 Z M 504.347656 554.660156 L 505.964844 529.148438 C 505.457031 528.636719 504.9375 528.125 504.429688 527.605469 C 502.535156 525.691406 500.632812 523.78125 498.589844 522.023438 C 498.109375 521.609375 496.714844 520.328125 495.199219 519.15625 C 492.703125 521.777344 490.320312 524.59375 488.039062 527.601562 C 488.683594 527.695312 489.332031 527.851562 489.988281 528.101562 C 493.667969 529.503906 497.085938 533.839844 494.746094 537.894531 C 492.667969 541.492188 488.921875 542.78125 485.296875 544.261719 C 482.832031 545.269531 480.324219 546.179688 477.839844 547.140625 C 477.25 549.074219 476.730469 551.035156 476.253906 553.023438 L 474.570312 553.023438 L 474.183594 554.65625 L 504.347656 554.65625 Z M 409.28125 674.65625 L 408.957031 676.289062 L 410.621094 676.289062 C 406.925781 695.074219 403.226562 713.855469 399.53125 732.648438 C 395.746094 751.878906 391.914062 771.089844 388.15625 790.328125 C 387.347656 794.46875 386.382812 800.164062 390.386719 803.078125 C 393.929688 805.671875 397.023438 802.402344 398.578125 799.359375 C 400.382812 795.808594 401.039062 791.695312 401.992188 787.871094 C 403.167969 783.199219 404.355469 778.535156 405.558594 773.867188 C 414.046875 741.074219 423.292969 708.417969 434.117188 676.292969 L 435.839844 676.292969 L 436.390625 674.65625 Z M 429.671875 553.136719 L 429.773438 554.660156 L 473.933594 554.660156 L 474.226562 553.398438 C 474.257812 553.273438 474.292969 553.152344 474.320312 553.027344 L 472.636719 553.027344 C 472.960938 551.628906 473.308594 550.242188 473.679688 548.863281 C 473.203125 549.074219 472.722656 549.269531 472.25 549.492188 C 471.355469 549.917969 467.667969 551.507812 465.71875 553.027344 L 463.058594 553.027344 L 462.984375 553.082031 L 462.980469 553.027344 L 461.335938 553.027344 C 461.320312 552.878906 461.304688 552.730469 461.289062 552.582031 C 459.160156 551.824219 456.628906 551.273438 455.882812 551.085938 C 451.339844 549.9375 446.667969 549.378906 442.074219 548.476562 C 438.226562 547.71875 434.304688 547.183594 431.570312 544.054688 C 428.488281 540.527344 431.007812 535.613281 434.347656 533.53125 C 438.675781 530.832031 443.503906 532.558594 447.839844 534.265625 C 453.003906 536.296875 457.011719 539.824219 459.910156 544.53125 C 460.117188 544.871094 460.339844 545.230469 460.5625 545.597656 C 459.882812 538.40625 459.40625 531.410156 459.148438 524.570312 C 457.105469 523.183594 453.34375 521.832031 452.429688 521.464844 C 448.074219 519.726562 443.515625 518.558594 439.082031 517.058594 C 435.375 515.800781 431.554688 514.75 429.253906 511.292969 C 426.664062 507.386719 429.808594 502.847656 433.394531 501.226562 C 438.042969 499.121094 442.597656 501.46875 446.671875 503.734375 C 451.523438 506.425781 455.03125 510.453125 457.28125 515.5 C 457.820312 516.707031 458.4375 518.109375 458.992188 519.574219 C 458.929688 516.859375 458.890625 514.164062 458.890625 511.496094 C 458.898438 505.503906 459.179688 499.695312 459.699219 494.0625 C 458.199219 493.132812 456.710938 492.355469 456.195312 492.0625 C 452.183594 489.804688 447.902344 488.070312 443.777344 486.042969 C 442.414062 488.542969 440.117188 490.378906 437.921875 492.300781 C 434.394531 495.378906 430.628906 498.199219 427.265625 501.472656 C 426.398438 502.316406 422.132812 506.171875 421.609375 508.1875 C 426.109375 522.28125 430.242188 537.378906 431.296875 553.023438 L 429.65625 553.023438 C 429.660156 553.0625 429.667969 553.097656 429.671875 553.136719 Z M 1007.335938 240.925781 C 1007.335938 240.964844 1007.355469 241.324219 1007.386719 241.875 C 1007.386719 241.160156 1007.386719 240.402344 1007.386719 239.585938 L 1006.863281 239.585938 C 1007.164062 240.023438 1007.335938 240.476562 1007.335938 240.925781 Z M 1007.335938 240.925781 "/><path style=" stroke:none;fill-rule:nonzero;fill:#f9a159;fill-opacity:1;" d="M 749.5625 586.90625 C 747.792969 588.328125 745.304688 589.878906 742.355469 591.488281 L 744.28125 621.753906 C 746.296875 620.921875 748.351562 620.074219 750.453125 619.214844 C 754.570312 617.546875 758.171875 613.878906 758.679688 609.523438 L 750.410156 589.074219 Z M 779.410156 734.894531 L 812.027344 734.230469 C 811.785156 739.105469 811.867188 744.566406 812.886719 748.851562 C 815.292969 758.949219 806.160156 771.144531 794.582031 790.378906 C 784.453125 807.195312 764.898438 810.011719 755.808594 803.191406 L 755.0625 791.488281 C 759.117188 783.171875 766.957031 769.96875 772.402344 756.941406 C 775.691406 749.082031 777.9375 741.183594 779.410156 734.894531 Z M 730.851562 282.1875 C 733.078125 282.394531 735.082031 282.898438 736.949219 283.582031 C 745.503906 286.734375 750.996094 293.925781 760.285156 295.78125 C 764.855469 296.917969 770.859375 296.621094 776.851562 296.046875 L 776.875 298.355469 C 776.886719 298.355469 776.933594 298.355469 776.996094 298.351562 C 777.953125 315.3125 780.140625 338.023438 780.148438 338.085938 L 780.144531 338.089844 L 755.144531 324.941406 L 755.144531 318.148438 L 753.039062 318.152344 C 754.664062 316.484375 755.691406 314.152344 755.691406 311.78125 C 755.691406 307.328125 752.078125 302.980469 747.625 302.980469 L 718.988281 302.980469 C 721.953125 301.667969 725.273438 300.804688 728.8125 300.464844 L 728.601562 298.160156 C 723.207031 298.675781 718.277344 300.347656 714.183594 302.980469 L 709.972656 302.980469 L 708.996094 298 C 713.425781 294.125 719.589844 291.5625 724.621094 291.304688 L 724.503906 288.988281 C 719.410156 289.25 713.253906 291.699219 708.5 295.464844 L 707.285156 289.269531 C 708.121094 288.710938 708.976562 288.179688 709.855469 287.675781 C 711.40625 286.789062 713.003906 285.992188 714.636719 285.292969 C 719.023438 283.414062 723.597656 282.269531 727.835938 282.132812 C 728.859375 282.097656 729.871094 282.101562 730.851562 282.1875 Z M 818.601562 99.828125 C 819.207031 99.324219 819.824219 98.800781 820.449219 98.238281 C 826.703125 92.582031 833.144531 84.105469 827.625 76.746094 C 823.097656 70.527344 813.472656 72.230469 808.941406 77.316406 L 808.945312 77.316406 L 808.941406 77.316406 C 808.941406 77.316406 786.007812 71.550781 778.722656 53.15625 C 778.722656 53.15625 781.78125 72.640625 776.828125 74.515625 C 773.023438 75.953125 743.65625 77.605469 727.425781 76.917969 C 727.429688 77.21875 727.445312 77.523438 727.445312 77.824219 C 727.445312 80.023438 727.507812 82.179688 727.605469 84.316406 C 727.714844 84.210938 727.832031 84.113281 727.964844 84.027344 C 729.855469 82.785156 728.230469 88.097656 727.820312 87.777344 C 728.667969 99.160156 731.09375 109.828125 735.929688 120.832031 C 746.511719 144.714844 769.425781 147.417969 790.175781 137.878906 C 788.109375 140.085938 785.929688 142.207031 783.601562 144.222656 C 777.070312 149.871094 769.34375 151.109375 761.417969 152.230469 C 761.285156 158.59375 760.824219 166.265625 765.609375 170.570312 C 777.234375 182.800781 795.585938 163.222656 801.09375 153.441406 C 804.277344 147.394531 808.679688 132.859375 808.683594 132.847656 L 808.683594 132.84375 C 808.683594 132.84375 809.480469 127.4375 809.476562 124.753906 C 809.480469 124.753906 809.480469 124.753906 809.480469 124.753906 C 809.480469 124.753906 809.476562 124.753906 809.476562 124.753906 C 809.476562 124.753906 820.121094 112.382812 818.601562 99.828125 Z M 685.003906 627.4375 C 686.101562 626.121094 687.207031 624.785156 688.292969 623.460938 C 689.277344 622.261719 690.242188 621.078125 691.167969 619.9375 C 692.050781 618.851562 692.898438 617.796875 693.6875 616.816406 C 693.703125 616.792969 693.722656 616.773438 693.738281 616.75 C 697.007812 612.6875 699.320312 609.746094 699.320312 609.746094 C 699.320312 609.746094 723.210938 601.226562 738.941406 593.277344 L 740.636719 619.9375 L 740.597656 619.9375 L 740.816406 623.191406 C 740.816406 623.191406 740.585938 623.289062 740.183594 623.460938 C 738.097656 624.351562 730.964844 627.390625 722.675781 630.828125 C 717.363281 633.078125 712.574219 635.105469 708.375 636.835938 C 707.109375 637.359375 705.894531 637.855469 704.738281 638.320312 C 697.574219 641.207031 692.519531 642.984375 689.992188 643.183594 C 689.984375 643.1875 689.960938 643.191406 689.953125 643.191406 C 688.035156 643.324219 685.996094 642.890625 684.320312 641.953125 C 682.640625 641.019531 681.324219 639.582031 680.855469 637.714844 C 679.914062 633.992188 682.539062 630.386719 685.003906 627.4375 Z M 685.003906 627.4375 "/><g clip-rule="nonzero" clip-path="url(#7d95f69a91)"><path style=" stroke:none;fill-rule:nonzero;fill:#243762;fill-opacity:1;" d="M 725.308594 158.089844 C 735.015625 149.039062 746.585938 142.992188 760.761719 143.042969 C 761.003906 144.488281 761.214844 145.914062 761.332031 147.320312 C 761.457031 148.785156 761.445312 150.457031 761.414062 152.230469 C 769.34375 151.105469 777.070312 149.871094 783.601562 144.21875 C 785.929688 142.207031 788.109375 140.085938 790.175781 137.875 C 769.425781 147.417969 746.507812 144.710938 735.929688 120.828125 C 731.09375 109.828125 728.667969 99.160156 727.820312 87.773438 C 728.230469 88.09375 728.726562 88.273438 729.230469 88.273438 C 729.671875 88.273438 730.113281 88.152344 730.5 87.898438 C 731.527344 87.222656 732.390625 87.058594 733.949219 86.804688 C 735.207031 86.589844 736.054688 85.394531 735.851562 84.136719 C 735.644531 82.878906 734.460938 82 733.191406 82.238281 C 731.554688 82.5 729.851562 82.785156 727.960938 84.027344 C 727.832031 84.113281 727.710938 84.207031 727.601562 84.316406 C 727.503906 82.179688 727.441406 80.023438 727.441406 77.824219 C 727.441406 77.519531 727.425781 77.21875 727.421875 76.914062 C 743.65625 77.601562 773.023438 75.953125 776.824219 74.511719 C 781.777344 72.640625 778.71875 53.15625 778.71875 53.15625 C 786.003906 71.550781 808.9375 77.3125 808.9375 77.3125 L 808.941406 77.316406 L 808.941406 77.3125 C 813.46875 72.230469 823.09375 70.527344 827.621094 76.746094 C 833.140625 84.105469 826.703125 92.582031 820.445312 98.234375 C 819.820312 98.800781 819.203125 99.320312 818.597656 99.828125 C 820.117188 112.382812 809.46875 124.75 809.46875 124.75 C 809.46875 124.75 809.472656 124.746094 809.472656 124.746094 C 809.472656 124.746094 809.472656 124.75 809.472656 124.75 C 809.476562 127.429688 808.679688 132.839844 808.679688 132.839844 L 808.679688 132.84375 C 808.820312 132.894531 834.382812 142.492188 848.589844 149.335938 C 849.375 119.457031 850.035156 77.839844 848.089844 66.027344 C 847.917969 64.976562 847.398438 60.125 847.382812 59.519531 C 846.5 26.816406 823.496094 5.015625 782.875 0.882812 C 773.921875 -0.03125 750.308594 2.238281 742.527344 6.785156 C 704.972656 28.742188 711.257812 72.511719 717.34375 75.570312 C 718.023438 75.910156 719.246094 76.183594 720.855469 76.398438 Z M 720.382812 469.0625 L 716.683594 520.726562 C 715.601562 519.140625 714.535156 517.589844 713.488281 516.070312 L 716.613281 472.421875 C 717.839844 471.328125 719.101562 470.207031 720.382812 469.0625 Z M 708.375 636.835938 L 696.113281 808.101562 C 696.050781 809.027344 695.273438 809.738281 694.359375 809.738281 C 694.320312 809.738281 694.277344 809.734375 694.234375 809.730469 C 693.261719 809.664062 692.53125 808.820312 692.601562 807.851562 L 704.738281 638.320312 C 705.894531 637.855469 707.105469 637.363281 708.375 636.835938 Z M 934.097656 807.851562 C 934.167969 808.824219 933.4375 809.664062 932.46875 809.734375 C 932.425781 809.734375 932.382812 809.738281 932.339844 809.738281 C 931.425781 809.738281 930.652344 809.027344 930.585938 808.105469 L 903.976562 436.359375 C 905.160156 436.1875 906.324219 435.972656 907.457031 435.710938 Z M 708.335938 265.597656 C 709.3125 261.835938 709.199219 257.214844 710.082031 253.257812 C 711.457031 247.113281 712.90625 241.007812 714.378906 234.878906 C 716.03125 228.015625 718.035156 221.261719 720.101562 214.511719 C 721.839844 208.835938 726.074219 201.804688 725.832031 195.839844 C 725.410156 185.300781 741.75 185.34375 742.171875 195.839844 C 742.386719 201.25 740.449219 205.886719 738.476562 210.816406 C 735.535156 218.171875 733.546875 226.136719 731.488281 233.777344 C 729.589844 240.804688 727.753906 247.949219 726.332031 255.085938 C 725.363281 259.960938 725.320312 265.195312 724.085938 269.941406 C 722.902344 274.496094 714.855469 282.019531 714.632812 285.289062 C 713 285.988281 711.402344 286.785156 709.851562 287.671875 C 710.128906 282.945312 707.398438 269.210938 708.335938 265.597656 Z M 708.496094 295.464844 C 713.253906 291.699219 719.410156 289.25 724.503906 288.988281 L 724.621094 291.304688 C 719.585938 291.5625 713.421875 294.125 708.992188 298 Z M 728.808594 300.460938 C 725.273438 300.800781 721.949219 301.664062 718.988281 302.980469 L 714.183594 302.980469 C 718.277344 300.347656 723.207031 298.675781 728.597656 298.15625 Z M 787.125 285.527344 C 799.820312 285.527344 812.628906 285.355469 825.21875 287.070312 C 830.34375 287.769531 835.441406 288.300781 840.570312 288.757812 C 837.769531 279.839844 836.210938 270.410156 834.402344 261.363281 C 832.421875 251.488281 830.203125 241.65625 828.050781 231.816406 C 826.316406 223.890625 823.777344 216.234375 823.691406 208.039062 C 823.582031 197.503906 839.917969 197.511719 840.027344 208.039062 C 840.105469 215.671875 842.839844 223.0625 844.457031 230.460938 C 846.390625 239.308594 848.339844 248.148438 850.152344 257.019531 C 852.253906 267.285156 853.753906 278.019531 857.566406 287.789062 C 860.785156 284.589844 864.878906 282.621094 869.953125 283.3125 C 874.191406 283.890625 877.390625 287.746094 877.390625 292.046875 C 877.390625 297.769531 871.652344 301.757812 866.789062 303.488281 C 866.238281 304.832031 865.589844 306.136719 865.40625 306.792969 C 863.332031 314.246094 854.566406 314.078125 850.476562 308.746094 C 849.773438 307.828125 849.113281 306.886719 848.476562 305.933594 C 841.972656 305.796875 835.414062 304.910156 829.324219 304.0625 C 815.265625 302.101562 801.320312 301.863281 787.125 301.863281 C 783.960938 301.863281 777.363281 298.347656 776.992188 298.351562 C 776.929688 298.351562 776.882812 298.351562 776.871094 298.351562 L 776.847656 296.042969 L 776.824219 293.726562 C 777.085938 293.726562 781.851562 285.527344 787.125 285.527344 Z M 772.019531 120.8125 C 768.515625 127.140625 764.210938 129.796875 757.335938 129.796875 C 757 129.796875 756.652344 129.789062 756.300781 129.78125 L 756.472656 125.152344 C 762.261719 125.402344 765.128906 123.695312 767.96875 118.570312 Z M 821.042969 79.097656 C 822.007812 81.894531 821.722656 85.234375 820.300781 87.8125 C 819.148438 89.890625 817.332031 91.316406 815.167969 91.824219 L 814.113281 87.316406 C 815.007812 87.105469 815.722656 86.527344 816.242188 85.578125 C 817.027344 84.15625 817.199219 82.152344 816.671875 80.605469 Z M 730.277344 97.105469 C 730.277344 95.0625 731.933594 93.414062 733.96875 93.414062 C 736.007812 93.414062 737.664062 95.066406 737.664062 97.105469 C 737.664062 99.152344 736.007812 100.800781 733.96875 100.804688 C 731.933594 100.804688 730.277344 99.148438 730.277344 97.105469 Z M 767.367188 97.105469 C 767.367188 99.152344 765.714844 100.800781 763.671875 100.804688 C 761.632812 100.804688 759.976562 99.148438 759.976562 97.105469 C 759.976562 95.0625 761.632812 93.414062 763.671875 93.414062 C 765.714844 93.414062 767.367188 95.066406 767.367188 97.105469 Z M 758.019531 84.992188 C 757.109375 84.992188 756.253906 84.453125 755.878906 83.5625 C 755.390625 82.378906 755.949219 81.03125 757.128906 80.535156 C 759.730469 79.460938 762.339844 79.40625 764.863281 79.351562 L 765.347656 79.347656 C 766.574219 79.289062 767.683594 80.332031 767.707031 81.613281 C 767.738281 82.886719 766.71875 83.953125 765.445312 83.976562 L 764.953125 83.984375 C 762.757812 84.027344 760.691406 84.066406 758.898438 84.8125 C 758.617188 84.9375 758.3125 84.992188 758.019531 84.992188 Z M 515.660156 408.632812 L 515.660156 406.320312 L 515.390625 410.589844 C 514.207031 410.464844 513.035156 410.414062 511.871094 410.460938 L 517.066406 328.675781 L 487.488281 328.71875 L 487.488281 318.570312 L 543.21875 318.480469 L 753.042969 318.152344 L 755.144531 318.148438 L 755.144531 328.308594 L 708.496094 328.382812 L 518.308594 328.675781 L 520.585938 328.816406 L 515.738281 405.109375 L 726.96875 405.109375 L 726.96875 408.632812 Z M 502.8125 553.027344 L 504.425781 527.605469 C 505.527344 528.722656 506.628906 529.835938 507.746094 530.933594 L 506.339844 553.027344 Z M 511.378906 473.699219 L 509.527344 502.894531 C 508.273438 503.695312 507.046875 504.53125 505.839844 505.386719 L 509.523438 447.378906 C 510.3125 447.238281 511.097656 447.027344 511.878906 446.667969 C 512.363281 446.445312 512.777344 446.175781 513.148438 445.871094 L 511.519531 471.519531 C 511.398438 472.246094 511.359375 472.972656 511.378906 473.699219 Z M 505.226562 514.992188 L 505.554688 509.871094 C 506.761719 508.953125 507.996094 508.074219 509.25 507.21875 L 508.726562 515.488281 C 507.578125 515.246094 506.414062 515.074219 505.226562 514.992188 Z M 496.328125 710.621094 L 490.136719 808.085938 L 486.625 807.863281 L 493.414062 700.945312 C 494.394531 704.171875 495.363281 707.398438 496.328125 710.621094 Z M 510.992188 424.292969 C 512.128906 424.804688 513.273438 425.308594 514.425781 425.800781 L 513.769531 436.078125 C 513.738281 436.027344 513.710938 435.976562 513.679688 435.929688 C 512.796875 434.609375 511.675781 433.695312 510.4375 433.007812 Z M 521.550781 619.941406 L 691.167969 619.941406 C 690.242188 621.082031 689.277344 622.265625 688.292969 623.460938 L 520.140625 623.460938 C 520.636719 622.3125 521.113281 621.144531 521.550781 619.941406 Z M 722.140625 328.824219 L 725.65625 328.601562 L 726.324219 339.152344 L 733.816406 457.089844 L 740.152344 556.816406 L 742.355469 591.488281 L 744.277344 621.753906 L 755.0625 791.484375 L 755.804688 803.1875 L 756.101562 807.863281 L 752.589844 808.085938 L 740.859375 623.460938 L 740.183594 623.460938 C 740.585938 623.289062 740.816406 623.1875 740.816406 623.1875 L 740.597656 619.9375 L 740.636719 619.9375 L 738.941406 593.277344 L 736.21875 550.40625 L 730.480469 460.070312 L 722.800781 339.222656 Z M 389.027344 651.636719 L 499.0625 651.636719 C 499.0625 651.636719 499.453125 651.324219 500.132812 650.722656 L 500.074219 651.636719 L 534.953125 651.636719 C 541.261719 651.636719 546.375 657.664062 546.375 663.964844 C 546.375 670.269531 541.261719 676.289062 534.953125 676.289062 L 498.511719 676.289062 L 497.09375 698.582031 C 496.125 695.484375 495.152344 692.386719 494.15625 689.300781 L 494.980469 676.289062 L 389.03125 676.289062 C 382.722656 676.289062 377.613281 670.269531 377.613281 663.964844 C 377.613281 657.660156 382.722656 651.636719 389.027344 651.636719 Z M 1026.320312 783.699219 L 1026.320312 421.695312 C 984.421875 421.277344 948.210938 415.4375 928.925781 406.945312 C 920.066406 403.042969 914.792969 398.582031 914.175781 393.832031 C 914.136719 393.519531 914.082031 393.207031 914.082031 392.894531 C 914.082031 391.984375 914.273438 391.082031 914.609375 390.191406 C 920.140625 404.84375 970.179688 416.324219 1031.113281 416.324219 C 1092.050781 416.324219 1142.09375 404.84375 1147.625 390.191406 C 1147.960938 391.082031 1148.152344 391.984375 1148.152344 392.894531 C 1148.152344 408.632812 1096.957031 421.414062 1033.359375 421.714844 L 1033.359375 783.746094 C 1058.28125 784.355469 1077.742188 789.535156 1077.742188 795.835938 C 1077.742188 802.539062 1055.664062 807.980469 1028.425781 807.984375 C 1001.1875 807.984375 979.109375 802.542969 979.109375 795.835938 C 979.113281 789.296875 1000.0625 783.972656 1026.320312 783.699219 Z M 1057.125 284.160156 C 1056.828125 284.160156 1056.542969 284.1875 1056.253906 284.203125 L 1056.253906 278.386719 C 1056.871094 278.351562 1057.507812 278.324219 1058.167969 278.324219 C 1058.167969 278.324219 1075.589844 278.761719 1077.234375 278.703125 C 1077.285156 278.703125 1077.335938 278.707031 1077.386719 278.707031 L 1077.386719 284.617188 C 1070.574219 283.496094 1062.871094 284.007812 1057.125 284.160156 Z M 995.964844 254.429688 C 991.230469 254.429688 986.976562 253.277344 985.09375 251.664062 C 984.4375 251.097656 984.0625 250.480469 984.0625 249.835938 L 984.0625 249.765625 L 984.777344 240.414062 C 984.777344 240.414062 985.039062 239.695312 985.238281 239.359375 C 986.40625 237.367188 990.90625 235.878906 996.164062 235.878906 C 1001.199219 235.878906 1005.480469 237.589844 1006.863281 239.582031 C 1007.167969 240.023438 1007.335938 240.472656 1007.335938 240.925781 C 1007.335938 240.964844 1007.355469 241.324219 1007.390625 241.871094 C 1007.523438 244.183594 1007.871094 249.917969 1007.871094 250.027344 C 1007.871094 250.40625 1007.730469 250.769531 1007.492188 251.117188 C 1006.160156 253.058594 1001.382812 254.429688 995.964844 254.429688 Z M 1009.546875 376.933594 L 984.566406 376.933594 C 978.503906 376.933594 973.492188 374.140625 973.492188 368.074219 L 973.492188 304.925781 C 973.492188 302.035156 984.136719 298.707031 996.484375 298.707031 C 1008.859375 298.707031 1019.078125 302.976562 1019.085938 302.976562 L 1019.277344 302.976562 L 1019.277344 368.074219 C 1019.277344 374.140625 1015.617188 376.933594 1009.546875 376.933594 Z M 553.65625 163.234375 C 545.824219 155.398438 543 143.308594 547.0625 133.699219 L 544.890625 131.527344 C 543.3125 129.949219 542.273438 127.921875 541.859375 125.816406 C 541.296875 122.96875 541.902344 119.992188 543.933594 117.800781 C 544.003906 117.722656 544.066406 117.636719 544.144531 117.558594 L 544.355469 117.351562 C 548.144531 113.5625 555.03125 113.808594 558.820312 117.597656 L 561.714844 120.488281 C 571.273438 117.339844 582.820312 119.609375 590.054688 126.839844 L 602.03125 138.816406 L 565.636719 175.210938 Z M 553.65625 163.234375 "/></g><g clip-rule="nonzero" clip-path="url(#1f07f633cd)"><path style=" stroke:none;fill-rule:nonzero;fill:#f4f4f4;fill-opacity:1;" d="M 730.441406 199.84375 L 734.625 201.828125 C 734.429688 202.226562 717.894531 237.820312 714.636719 285.292969 C 719.023438 283.410156 723.597656 282.269531 727.835938 282.128906 L 750.070312 258.003906 C 751.507812 256.445312 753.9375 256.347656 755.5 257.785156 C 757.054688 259.21875 757.160156 261.65625 755.722656 263.214844 L 736.949219 283.582031 C 745.507812 286.734375 750.996094 293.925781 760.289062 295.78125 C 764.859375 296.917969 770.859375 296.621094 776.851562 296.046875 L 776.828125 293.730469 C 779.003906 293.707031 820.609375 293.335938 847.359375 294.285156 C 845.371094 288.265625 842.640625 273.253906 836.066406 235.996094 C 834.222656 225.535156 833.007812 216.5 831.949219 211.40625 L 836.667969 210.46875 C 837.738281 215.628906 839.429688 224.699219 841.285156 235.191406 C 844.042969 250.808594 847.792969 274.324219 850.527344 286.511719 C 851.4375 290.574219 852.234375 293.675781 852.847656 294.511719 C 852.847656 294.507812 852.84375 294.515625 852.839844 294.515625 C 856.992188 294.710938 860.621094 294.945312 863.414062 295.234375 L 862.933594 299.835938 C 843.253906 297.796875 780.097656 298.320312 776.996094 298.351562 C 777.953125 315.3125 780.140625 338.023438 780.148438 338.085938 L 780.144531 338.089844 L 755.144531 324.941406 L 755.144531 328.3125 L 708.496094 328.382812 C 708.710938 334.925781 708.886719 339.5 708.886719 339.5 L 709.164062 339.496094 L 722.804688 339.226562 L 722.144531 328.828125 L 725.65625 328.605469 L 726.328125 339.15625 L 780.144531 338.089844 C 780.144531 338.089844 833.199219 350.902344 880.777344 342.765625 C 928.351562 334.632812 912.988281 292.570312 909.382812 266.722656 C 904.578125 236.078125 904.917969 222.265625 891.71875 189.089844 C 885.117188 172.515625 869.789062 161.242188 854.167969 152.226562 C 852.664062 151.355469 850.757812 150.375 848.59375 149.335938 C 834.390625 142.492188 808.824219 132.894531 808.683594 132.84375 C 808.679688 132.855469 804.277344 147.386719 801.09375 153.4375 C 795.585938 163.21875 777.234375 182.796875 765.609375 170.566406 C 760.824219 166.261719 761.28125 158.589844 761.414062 152.226562 C 761.445312 150.453125 761.457031 148.78125 761.332031 147.316406 C 761.214844 145.914062 761.003906 144.484375 760.761719 143.042969 C 746.585938 142.992188 735.015625 149.035156 725.308594 158.085938 C 712.453125 170.066406 702.859375 187.285156 694.8125 202.53125 C 693.660156 204.726562 692.59375 206.953125 691.582031 209.191406 L 707.28125 289.265625 C 708.121094 288.707031 708.976562 288.175781 709.855469 287.671875 C 712.726562 237.921875 730.238281 200.265625 730.441406 199.84375 Z M 969.972656 362.902344 L 969.972656 371.234375 C 969.972656 378.992188 976.046875 383.980469 983.804688 383.980469 L 1008.585938 383.980469 C 1016.347656 383.980469 1022.796875 378.992188 1022.796875 371.234375 L 1022.796875 358.738281 C 1025.550781 358.691406 1028.316406 358.65625 1031.117188 358.65625 C 1034.246094 358.65625 1037.339844 358.695312 1040.40625 358.757812 L 1040.40625 373.609375 C 1040.40625 385.046875 1046.707031 386.304688 1056.160156 386.257812 C 1062.578125 386.226562 1069.363281 386.128906 1074.476562 386.128906 C 1083.675781 386.128906 1092.394531 382.261719 1092.394531 373.058594 L 1093.234375 373.414062 L 1093.234375 363.058594 C 1126.214844 368.160156 1148.15625 377.191406 1148.15625 387.492188 C 1148.15625 388.40625 1147.960938 389.304688 1147.628906 390.195312 C 1142.09375 404.84375 1092.054688 416.328125 1031.117188 416.328125 C 970.183594 416.328125 920.140625 404.847656 914.613281 390.195312 C 914.273438 389.304688 914.085938 388.40625 914.085938 387.492188 C 914.082031 377.085938 936.449219 367.972656 969.972656 362.902344 Z M 969.972656 362.902344 "/></g><path style=" stroke:none;fill-rule:nonzero;fill:#f2d16a;fill-opacity:1;" d="M 494.527344 310.019531 L 494.527344 164.667969 C 494.527344 143.15625 518.871094 122.910156 529.929688 122.863281 C 531.296875 122.855469 532.582031 122.816406 533.761719 122.757812 C 534.1875 124.519531 535.765625 125.828125 537.660156 125.824219 L 541.855469 125.816406 C 541.296875 122.96875 541.902344 119.992188 543.929688 117.800781 L 537.632812 117.8125 C 536.4375 117.816406 535.382812 118.351562 534.648438 119.179688 C 533.238281 119.269531 531.644531 119.332031 529.917969 119.339844 C 517.433594 119.398438 491.007812 140.875 491.007812 164.667969 L 491.007812 317.066406 L 541.859375 317.066406 C 540.335938 315.191406 539.191406 312.726562 538.660156 310.019531 Z M 783.296875 409.039062 C 782.160156 418.277344 781.523438 427.558594 779.8125 436.808594 L 756.46875 436.808594 C 762.933594 430.988281 768.191406 426.210938 771.035156 423.546875 C 775.855469 419.019531 779.886719 414.117188 783.296875 409.039062 Z M 893.832031 391.019531 L 899.023438 391.019531 C 904.542969 391.019531 909.703125 392.042969 914.175781 393.828125 C 914.792969 398.582031 920.066406 403.042969 928.925781 406.941406 C 929.859375 409.148438 930.347656 411.492188 930.28125 413.917969 C 930 424.007812 920.421875 432.738281 907.457031 435.710938 C 906.324219 435.972656 905.160156 436.1875 903.976562 436.359375 C 901.957031 436.648438 899.878906 436.808594 897.753906 436.808594 L 888.632812 436.808594 C 891.339844 429.195312 893.398438 421.425781 894.109375 413.78125 C 894.832031 405.980469 894.652344 398.421875 893.832031 391.019531 Z M 755.5 257.785156 C 757.054688 259.21875 757.15625 261.65625 755.71875 263.214844 L 736.949219 283.582031 C 735.082031 282.898438 733.078125 282.394531 730.851562 282.1875 C 729.875 282.101562 728.859375 282.097656 727.835938 282.128906 L 750.066406 258.003906 C 751.503906 256.445312 753.9375 256.347656 755.5 257.785156 Z M 427.765625 553.027344 L 525.671875 553.027344 C 525.671875 553.027344 525.324219 579.347656 524.890625 602.332031 C 524.777344 608.660156 523.492188 614.570312 521.546875 619.941406 C 521.109375 621.144531 520.636719 622.3125 520.140625 623.460938 C 513.9375 637.824219 503.488281 647.773438 500.132812 650.726562 C 499.449219 651.324219 499.058594 651.640625 499.058594 651.640625 L 425.949219 651.640625 C 425.949219 651.640625 400.636719 631.421875 400.117188 602.332031 C 399.683594 579.347656 399.335938 553.027344 399.335938 553.027344 Z M 1056.253906 284.203125 C 1056.542969 284.1875 1056.832031 284.160156 1057.125 284.160156 C 1062.871094 284.003906 1070.570312 283.496094 1077.386719 284.617188 C 1086.023438 286.042969 1093.234375 290.089844 1093.234375 300.820312 L 1093.234375 373.410156 L 1092.390625 373.054688 C 1092.390625 382.257812 1083.671875 386.125 1074.476562 386.125 C 1069.363281 386.125 1062.578125 386.226562 1056.15625 386.253906 C 1046.707031 386.304688 1040.40625 385.042969 1040.40625 373.605469 L 1040.40625 300.816406 C 1040.410156 291.917969 1047.457031 284.660156 1056.253906 284.203125 Z M 1077.386719 278.710938 C 1077.335938 278.710938 1077.285156 278.707031 1077.234375 278.707031 C 1075.589844 278.761719 1058.167969 278.328125 1058.167969 278.328125 C 1057.507812 278.328125 1056.871094 278.355469 1056.253906 278.390625 C 1052.210938 278.625 1049.210938 279.21875 1049.210938 274.90625 L 1049.210938 268.691406 C 1049.210938 263.71875 1053.191406 257.195312 1058.167969 257.195312 L 1075.011719 257.195312 C 1079.988281 257.195312 1084.425781 263.71875 1084.425781 268.691406 L 1084.425781 275.515625 C 1084.429688 279.078125 1081.0625 278.796875 1077.386719 278.710938 Z M 1077.386719 278.710938 "/></g></svg>
