<svg version="1.0" xmlns="http://www.w3.org/2000/svg"
 width="6000.000000pt" height="3375.000000pt" viewBox="0 0 6000.000000 3375.000000"
 preserveAspectRatio="xMidYMid meet">

<g transform="translate(0.000000,3375.000000) scale(0.100000,-0.100000)"
fill="currentColor" stroke="none">
<path d="M29700 33289 c-180 -8 -282 -23 -453 -65 -95 -24 -100 -27 -157 -84
-32 -32 -82 -71 -110 -85 -55 -28 -387 -140 -505 -170 -88 -23 -118 -44 -161
-111 -51 -80 -136 -142 -239 -174 -46 -14 -261 -103 -319 -133 -22 -10 -75
-56 -118 -102 -87 -91 -137 -121 -263 -155 -44 -11 -125 -44 -181 -71 -81 -41
-107 -59 -132 -94 -38 -55 -115 -112 -217 -164 -75 -37 -236 -91 -275 -91 -29
0 -136 -76 -158 -112 -32 -52 -110 -120 -172 -151 -30 -14 -95 -38 -145 -53
-136 -40 -267 -85 -291 -101 -12 -7 -38 -40 -58 -72 -60 -98 -139 -152 -291
-200 -38 -13 -119 -47 -180 -76 -93 -45 -123 -66 -199 -138 -49 -47 -111 -96
-140 -110 -54 -27 -201 -77 -224 -77 -32 0 -175 -85 -200 -118 -60 -79 -123
-131 -215 -175 -82 -40 -240 -95 -322 -111 -47 -10 -113 -58 -144 -107 -37
-58 -85 -105 -135 -134 -40 -23 -202 -87 -401 -160 -85 -31 -103 -41 -114 -65
-27 -62 -101 -129 -185 -170 -46 -22 -88 -40 -94 -40 -60 0 -276 -109 -332
-168 -121 -126 -229 -188 -403 -231 -97 -24 -223 -94 -244 -135 -52 -101 -261
-213 -519 -278 -67 -17 -115 -51 -150 -107 -58 -92 -118 -134 -270 -190 -44
-16 -140 -54 -214 -84 -113 -46 -139 -60 -158 -88 -41 -61 -110 -126 -163
-154 -49 -25 -159 -65 -183 -65 -31 -1 -246 -114 -246 -129 0 -4 -24 -31 -53
-60 -95 -93 -237 -166 -404 -206 -101 -24 -181 -75 -236 -151 -53 -73 -69 -84
-212 -157 -104 -53 -197 -88 -310 -118 -73 -19 -93 -32 -124 -80 -62 -97 -125
-140 -305 -205 -199 -72 -273 -114 -368 -208 -96 -96 -158 -131 -290 -165 -89
-23 -219 -84 -257 -121 -14 -14 -42 -46 -62 -70 -63 -78 -256 -179 -411 -216
-108 -25 -184 -68 -215 -121 -28 -48 -111 -125 -158 -147 -280 -130 -377 -199
-498 -356 -52 -67 -139 -162 -261 -284 -96 -98 -184 -242 -200 -330 -19 -102
-68 -221 -132 -319 -37 -56 -75 -112 -86 -123 -10 -12 -34 -75 -52 -141 -72
-256 -67 339 -63 -7613 2 -5330 6 -7150 15 -7226 22 -192 63 -330 122 -407 22
-30 40 -57 40 -61 0 -5 14 -25 30 -46 44 -55 86 -151 114 -263 38 -144 103
-266 190 -352 123 -122 233 -242 277 -302 100 -137 249 -246 473 -347 78 -35
138 -85 185 -155 44 -64 103 -102 188 -120 84 -17 172 -50 273 -103 96 -50
150 -92 208 -165 40 -51 163 -116 269 -144 136 -35 211 -77 300 -168 71 -72
91 -86 194 -134 63 -30 150 -67 194 -82 152 -51 244 -116 292 -205 22 -39 43
-49 210 -100 101 -30 306 -129 369 -177 18 -13 49 -49 70 -78 20 -30 47 -61
60 -70 59 -38 101 -57 162 -71 185 -43 349 -133 440 -241 48 -58 182 -130 302
-164 139 -38 231 -99 307 -202 29 -40 102 -74 409 -193 104 -40 174 -90 220
-154 59 -83 91 -109 152 -125 202 -57 377 -129 445 -184 25 -20 60 -58 78 -84
44 -64 142 -122 258 -152 172 -44 257 -92 376 -209 56 -54 90 -78 170 -116 55
-26 134 -58 175 -70 41 -13 91 -31 111 -41 62 -31 137 -97 165 -146 34 -58 30
-55 124 -89 132 -48 350 -134 391 -155 55 -27 115 -84 145 -135 26 -44 100
-101 144 -110 87 -19 268 -83 341 -120 84 -43 164 -111 196 -166 22 -37 145
-104 234 -129 181 -50 232 -77 344 -185 64 -61 102 -88 185 -130 58 -29 137
-62 175 -75 163 -52 266 -122 308 -210 8 -19 26 -44 39 -56 22 -20 150 -67
308 -113 110 -32 130 -40 185 -75 52 -33 100 -82 130 -133 28 -46 115 -92 230
-122 183 -47 367 -156 430 -253 25 -39 163 -110 275 -142 148 -42 194 -68 291
-167 57 -58 102 -94 135 -109 96 -42 240 -101 309 -126 111 -41 179 -91 227
-167 45 -69 62 -82 143 -106 148 -44 451 -144 492 -162 51 -23 127 -79 168
-125 33 -37 55 -45 260 -89 236 -50 777 -53 1005 -4 225 48 239 54 306 119 34
33 86 72 115 87 57 29 269 100 459 154 118 34 164 60 189 109 41 79 133 146
266 194 55 20 152 59 215 87 108 47 120 55 200 138 96 98 146 127 292 168 127
36 248 102 288 158 74 103 241 193 459 247 91 22 160 67 201 131 60 92 140
142 300 188 170 49 291 94 313 116 12 12 37 46 55 75 52 85 138 141 287 188
39 13 115 45 170 71 81 39 116 64 185 130 112 107 180 143 349 190 104 28 214
93 255 150 45 63 106 110 196 153 80 38 279 106 314 108 33 1 109 52 134 90
43 66 94 120 137 145 52 30 378 158 482 189 12 3 35 28 52 54 32 52 92 113
143 144 17 10 77 34 132 52 151 50 277 115 339 177 126 127 226 184 398 227
42 10 101 31 130 47 52 29 63 38 156 142 26 30 66 63 88 75 69 36 211 94 287
117 40 12 96 29 123 38 53 16 99 57 147 130 36 55 107 106 193 137 39 14 144
56 234 93 136 56 169 73 190 101 60 78 104 120 161 150 62 33 81 40 180 67 56
15 250 112 250 125 0 13 95 106 140 136 89 60 227 116 340 139 83 16 130 51
240 175 73 82 260 180 439 230 132 37 149 46 191 109 59 87 130 136 250 175
30 10 116 45 190 78 126 57 141 66 226 148 50 48 110 97 134 109 45 23 185 70
208 70 8 0 53 20 100 45 69 35 101 59 153 117 50 55 88 85 154 122 91 50 241
109 311 120 69 12 139 60 183 125 49 72 99 112 188 153 37 17 122 61 189 98
125 70 187 125 273 240 43 58 155 181 281 309 92 93 149 197 185 335 37 142
63 198 151 326 83 121 90 136 123 265 54 214 51 -198 51 7500 0 6379 -2 7116
-16 7260 -16 171 -63 374 -94 410 -36 42 -143 210 -162 254 -11 25 -32 92 -48
148 -47 167 -102 268 -199 363 -112 110 -227 236 -272 297 -79 108 -158 175
-292 251 -69 40 -145 79 -169 89 -84 33 -167 103 -202 172 -21 40 -100 88
-176 105 -80 19 -213 66 -260 93 -19 11 -54 31 -77 44 -46 26 -113 88 -154
141 -31 39 -167 111 -254 133 -149 38 -243 92 -326 186 -46 52 -70 69 -154
109 -55 26 -145 64 -200 85 -55 20 -120 46 -143 58 -60 29 -127 90 -158 143
-29 49 -53 64 -129 84 -146 37 -317 111 -433 187 -29 20 -70 60 -91 89 -62 86
-114 118 -256 157 -49 14 -116 35 -148 47 -83 31 -198 112 -257 179 -40 46
-69 67 -143 104 -50 25 -112 51 -137 57 -153 38 -237 92 -345 222 -26 31 -58
47 -225 112 -107 42 -217 87 -245 100 -64 30 -138 96 -170 151 -35 59 -83 88
-200 120 -97 27 -230 77 -308 117 -49 24 -121 90 -157 143 -37 53 -140 110
-249 136 -156 39 -286 113 -387 221 -56 61 -180 127 -324 173 -155 50 -244
111 -291 199 -13 26 -35 50 -49 55 -14 5 -77 28 -140 51 -331 120 -419 171
-474 279 -19 36 -98 87 -156 100 -77 17 -227 69 -296 102 -89 43 -159 98 -200
155 -35 48 -126 110 -195 133 -19 6 -72 22 -119 37 -122 37 -184 74 -280 165
-71 67 -104 90 -195 134 -60 30 -141 64 -180 76 -148 47 -248 117 -294 207
-11 22 -32 49 -46 60 -23 18 -271 104 -382 132 -66 17 -162 87 -213 156 -58
79 -121 118 -241 148 -176 45 -350 140 -421 230 -27 34 -65 65 -114 93 -77 44
-93 50 -214 84 -118 33 -167 63 -255 155 -94 98 -134 119 -473 250 -41 15 -93
43 -116 61 -42 32 -106 112 -106 131 0 18 -75 58 -140 76 -36 9 -156 47 -268
83 -218 70 -291 108 -367 188 -45 49 -72 58 -275 99 -87 18 -174 27 -285 31
-88 3 -176 7 -195 9 -19 1 -114 -1 -210 -5z m-3708 -9979 c72 -29 157 -76 193
-109 28 -26 107 -61 292 -130 45 -17 87 -31 93 -31 6 0 46 -16 88 -35 83 -39
149 -95 189 -162 23 -41 69 -73 102 -73 40 0 200 -59 319 -118 138 -68 197
-113 245 -188 25 -39 135 -114 168 -114 27 0 185 -48 237 -72 89 -42 179 -106
233 -167 45 -51 71 -70 154 -110 55 -27 123 -54 150 -61 28 -7 86 -30 130 -51
78 -36 119 -71 195 -166 20 -24 63 -46 200 -101 96 -39 199 -78 228 -88 73
-23 160 -82 207 -139 78 -94 99 -110 166 -127 35 -9 118 -30 185 -48 l120 -32
140 37 c261 68 256 65 312 147 56 82 119 123 270 177 42 16 142 55 221 87 143
58 145 60 194 122 73 93 170 153 297 182 50 12 161 61 235 105 17 10 44 37 60
59 68 91 252 193 423 234 121 30 189 71 238 145 43 66 87 99 223 167 117 59
282 120 324 120 36 0 77 31 113 86 65 97 112 127 334 206 160 57 290 116 334
151 64 50 120 78 231 115 108 36 124 39 195 28 93 -13 284 -58 312 -72 15 -8
48 -36 75 -63 65 -65 193 -127 343 -165 125 -32 207 -79 295 -171 78 -81 84
-85 210 -138 72 -31 169 -70 216 -87 109 -39 173 -82 225 -150 63 -82 101
-118 133 -125 107 -23 378 -127 442 -169 20 -14 54 -46 75 -72 22 -26 55 -63
75 -83 36 -37 132 -91 159 -91 30 0 176 -48 236 -77 88 -43 143 -84 207 -152
71 -77 186 -137 367 -192 102 -31 185 -90 235 -165 38 -56 45 -61 125 -93 403
-157 420 -165 478 -221 18 -17 46 -52 62 -77 35 -54 73 -84 148 -114 138 -55
211 -125 267 -257 44 -104 74 -162 83 -162 21 0 116 -112 144 -168 26 -53 33
-80 40 -173 5 -61 7 -1731 6 -3712 l-3 -3602 -38 -79 c-28 -58 -55 -96 -105
-145 -68 -67 -99 -114 -122 -186 -16 -50 -74 -142 -109 -173 -40 -36 -91 -66
-154 -91 -78 -32 -133 -73 -156 -120 -25 -48 -95 -111 -164 -145 -41 -21 -370
-152 -449 -179 -9 -3 -26 -24 -37 -45 -25 -49 -106 -123 -164 -150 -25 -12
-82 -33 -128 -48 -145 -46 -264 -111 -316 -172 -87 -102 -216 -173 -411 -227
-113 -31 -208 -87 -236 -140 -55 -101 -236 -198 -496 -267 -83 -21 -141 -56
-159 -94 -15 -34 -96 -120 -137 -145 -19 -11 -84 -40 -146 -63 -259 -99 -331
-134 -368 -178 -98 -115 -183 -170 -322 -207 -71 -18 -181 -68 -241 -109 -15
-10 -41 -37 -58 -60 -60 -82 -249 -185 -416 -228 -119 -30 -202 -78 -236 -137
-49 -83 -122 -132 -259 -176 -51 -17 -145 -47 -208 -67 -128 -41 -138 -47
-186 -119 -71 -108 -129 -149 -279 -200 -44 -15 -134 -53 -200 -85 -106 -51
-129 -67 -195 -135 -82 -84 -176 -137 -300 -169 -88 -23 -225 -92 -258 -129
-82 -92 -144 -145 -213 -179 -76 -37 -216 -87 -304 -108 -73 -17 -135 -61
-183 -130 -43 -60 -99 -108 -157 -135 -48 -22 -272 -109 -370 -144 -83 -29
-93 -36 -119 -76 -37 -59 -108 -121 -172 -150 -111 -51 -134 -53 -539 -54
l-380 -1 -84 29 c-108 38 -183 90 -234 163 -23 32 -45 58 -49 58 -5 0 -73 25
-151 56 -78 31 -171 67 -207 81 -36 14 -86 36 -112 49 -53 27 -140 111 -157
153 -16 36 -89 72 -216 106 -193 50 -354 147 -451 271 -40 50 -122 94 -242
128 -52 14 -126 41 -165 60 -76 35 -187 120 -228 173 -28 36 -210 131 -304
158 -151 44 -246 109 -307 211 -28 47 -39 56 -97 79 -97 40 -128 50 -211 75
-184 54 -269 102 -330 186 -16 23 -30 46 -30 51 -1 22 -105 73 -222 106 -207
59 -333 130 -421 238 -34 42 -66 66 -133 102 -48 26 -93 47 -99 47 -17 0 -161
47 -197 65 -18 9 -71 57 -118 106 -84 88 -87 89 -225 149 -77 34 -169 71 -205
82 -123 39 -204 99 -263 194 -34 55 -68 77 -152 99 -96 25 -245 79 -330 120
-73 35 -154 106 -181 156 -23 45 -121 103 -216 129 -208 56 -317 115 -428 230
-53 56 -82 76 -160 113 -52 24 -117 50 -145 57 -76 20 -186 73 -229 111 -22
19 -54 57 -71 84 -24 37 -43 54 -71 64 -88 30 -373 144 -424 169 -61 30 -137
102 -170 160 -21 37 -82 83 -130 97 -119 36 -240 152 -275 265 -17 56 -67 143
-93 163 -52 40 -99 99 -131 163 -29 58 -33 78 -41 197 -12 175 -12 7009 0
7185 8 121 12 138 42 195 18 34 60 90 94 124 74 76 86 93 128 192 18 43 47 99
66 125 35 52 118 111 196 141 71 27 131 71 150 110 9 19 42 59 74 89 54 50 75
60 287 144 125 49 237 93 248 96 11 3 29 21 39 40 52 97 157 170 297 207 36 9
113 40 172 69 85 41 115 62 147 100 84 101 230 183 399 226 83 21 165 58 211
97 9 6 26 29 39 49 30 50 100 110 164 141 99 48 222 95 322 122 108 31 136 51
201 146 38 56 121 112 222 148 252 92 384 159 416 211 45 74 173 149 335 194
145 41 254 96 326 166 34 32 75 62 91 65 16 4 43 11 59 15 35 10 169 37 240
48 53 9 130 -7 237 -48z"/>
<path d="M29855 20724 c-11 -2 -95 -10 -186 -18 -165 -13 -167 -14 -275 -62
-90 -40 -118 -58 -159 -103 -105 -113 -253 -195 -405 -225 -91 -18 -200 -86
-249 -154 -18 -26 -53 -62 -76 -80 -60 -46 -225 -117 -367 -157 -65 -19 -130
-42 -144 -51 -14 -10 -43 -43 -64 -74 -74 -108 -101 -125 -428 -256 -142 -57
-198 -84 -210 -102 -36 -52 -108 -125 -147 -147 -40 -24 -154 -67 -210 -80
-16 -3 -67 -25 -115 -48 -66 -32 -101 -58 -155 -113 -125 -128 -186 -159 -460
-239 -73 -21 -157 -75 -184 -118 -50 -79 -97 -116 -246 -190 -100 -49 -211
-90 -321 -117 -23 -6 -46 -16 -52 -23 -5 -6 -27 -59 -47 -117 -21 -58 -56
-141 -79 -185 l-41 -80 0 -2405 0 -2405 85 -145 c47 -80 91 -159 98 -176 17
-40 70 -58 255 -84 129 -19 195 -20 890 -20 745 0 1073 9 1118 30 13 6 39 32
56 58 67 97 140 160 244 213 45 22 64 40 86 76 l28 48 6 1510 5 1510 31 115
c58 212 82 264 156 332 69 64 110 77 292 94 28 3 88 9 135 14 111 13 2229 13
2335 1 44 -5 107 -12 140 -16 196 -19 247 -41 326 -138 55 -68 82 -144 131
-362 20 -88 21 -127 25 -1570 l4 -1480 25 -53 c23 -47 33 -56 92 -86 89 -45
168 -112 227 -191 26 -36 56 -70 66 -76 37 -19 388 -29 1121 -29 690 0 756 1
885 20 155 22 239 45 248 69 3 9 41 76 83 148 42 73 85 147 94 165 17 31 18
167 18 2422 l0 2389 -44 96 c-24 53 -60 141 -80 196 -37 100 -62 135 -97 135
-41 0 -232 72 -345 130 -125 64 -163 93 -224 176 -48 64 -121 106 -231 134
-46 11 -118 34 -159 51 -92 37 -222 127 -258 179 -37 53 -161 121 -310 169
-146 48 -216 91 -283 176 -53 68 -74 79 -362 190 -191 74 -247 112 -311 213
-34 55 -73 80 -158 103 -171 46 -351 123 -416 176 -25 20 -59 57 -76 81 -34
48 -131 117 -186 132 -128 35 -190 55 -239 78 -71 33 -193 123 -229 169 -30
38 -169 113 -257 138 -27 7 -120 19 -205 25 -85 6 -164 13 -175 14 -11 2 -29
2 -40 0z"/>
</g>
</svg>
