<?xml version="1.0" encoding="utf-8"?><!-- Uploaded to: SVG Repo, www.svgrepo.com, Generator: SVG Repo Mixer Tools -->
<svg xmlns="http://www.w3.org/2000/svg" viewBox="0 0 637 884" version="1.1"><path d="" stroke="none" fill="#000000" fill-rule="evenodd"></path><path d="M 128 58.341 C 98.575 75.903, 64.375 96.404, 52 103.899 L 29.500 117.527 29.182 155.013 C 29.007 175.631, 29.175 342.456, 29.556 525.736 L 30.248 858.972 95.624 859.236 C 131.581 859.381, 160.991 859.275, 160.979 859 C 160.967 858.725, 159.054 857.157, 156.729 855.516 C 141.245 844.588, 107.374 812.969, 92.986 796.010 C 77.985 778.329, 63.478 756.878, 54.698 739.393 C 50.672 731.375, 44 714.242, 44 711.920 C 44 709.111, 47.288 712.183, 53.500 720.795 C 62.078 732.688, 86.592 757.497, 101.500 769.373 C 114.181 779.476, 131.340 791.261, 145 799.251 C 156.825 806.168, 184.334 820, 186.266 820 C 187.414 820, 187.555 819.049, 186.971 815.250 C 186.569 812.638, 185.918 803.638, 185.525 795.250 C 184.966 783.334, 185.083 780, 186.060 780 C 186.747 780, 192.434 785.378, 198.697 791.950 C 217.614 811.803, 234.903 824.541, 258.500 836.010 C 275.898 844.466, 292.059 849.584, 309.048 852.017 C 319.614 853.531, 341.092 853.289, 351.044 851.543 C 403.083 842.417, 442.847 800.562, 460.343 736.500 C 467.101 711.752, 469.873 691.897, 470.671 662.500 C 471.560 629.805, 468.441 593.804, 462.015 562.574 C 459.605 550.861, 459.611 551, 461.492 551 C 463.223 551, 471.547 567.109, 478.285 583.500 C 488.515 608.387, 495.757 633.647, 500.646 661.500 C 503.299 676.610, 503.455 679.141, 503.458 707 C 503.462 738.240, 502.228 750.156, 497.094 768.486 C 496.018 772.328, 495.291 775.624, 495.478 775.811 C 496 776.334, 514.671 764.376, 520.933 759.508 C 570.878 720.682, 599.375 666.167, 609.543 590 C 611.760 573.390, 612.624 527.378, 611.094 507.379 C 603.776 411.711, 557.786 341.116, 476 300.009 C 460.919 292.429, 432 281.184, 432 282.900 C 432 283.260, 432.605 284.443, 433.344 285.527 C 436.500 290.160, 489 391.393, 489 392.846 C 489 396.064, 484.811 392.401, 468.898 375.269 C 443.553 347.983, 385.666 287.584, 379.556 282.051 C 373.588 276.646, 373.642 276.659, 349.819 274.981 C 322.858 273.082, 297.751 276.969, 268.055 287.642 C 239.705 297.831, 212.316 314.235, 190.755 333.941 C 187.711 336.723, 184.720 339, 184.110 339 C 182.800 339, 182.907 348.233, 182.106 164.955 L 181.500 26.411 128 58.341 M 301.635 420.033 C 282.697 423.016, 260.059 432.345, 245.500 443.167 C 230.836 454.067, 215.290 472.489, 207.244 488.500 C 203.103 496.739, 198.595 509.830, 196.394 520 C 193.861 531.710, 193.835 555.228, 196.342 567 C 202.153 594.283, 214.219 616.217, 233.923 635.317 C 252.051 652.890, 271.014 663.023, 295.328 668.131 C 307.169 670.618, 330.880 671.162, 342.577 669.214 C 391.043 661.143, 430.302 625.529, 442.454 578.610 C 458.410 517.007, 425.141 451.810, 365.585 427.970 C 350.534 421.945, 340.111 419.864, 323 419.468 C 314.475 419.271, 304.861 419.525, 301.635 420.033" stroke="none" fill="#3884fd" fill-rule="evenodd"></path><path d="" stroke="none" fill="#262626" fill-rule="evenodd"></path></svg>